<svg width="32" height="32" viewBox="0 0 32 32" fill="none" xmlns="http://www.w3.org/2000/svg">
<g clip-path="url(#clip0_2149_2196)">
<g filter="url(#filter0_d_2149_2196)">
<path d="M28 6H4C3.73478 6 3.48043 6.10536 3.29289 6.29289C3.10536 6.48043 3 6.73478 3 7V24C3 24.5304 3.21071 25.0391 3.58579 25.4142C3.96086 25.7893 4.46957 26 5 26H27C27.5304 26 28.0391 25.7893 28.4142 25.4142C28.7893 25.0391 29 24.5304 29 24V7C29 6.73478 28.8946 6.48043 28.7071 6.29289C28.5196 6.10536 28.2652 6 28 6ZM25.4287 8L16 16.6437L6.57125 8H25.4287ZM27 24H5V9.27375L15.3237 18.7375C15.5082 18.9069 15.7496 19.0008 16 19.0008C16.2504 19.0008 16.4918 18.9069 16.6763 18.7375L27 9.27375V24Z" fill="#E2E4E9"/>
</g>
</g>
<defs>
<filter id="filter0_d_2149_2196" x="-1" y="6" width="34" height="28" filterUnits="userSpaceOnUse" color-interpolation-filters="sRGB">
<feFlood flood-opacity="0" result="BackgroundImageFix"/>
<feColorMatrix in="SourceAlpha" type="matrix" values="0 0 0 0 0 0 0 0 0 0 0 0 0 0 0 0 0 0 127 0" result="hardAlpha"/>
<feOffset dy="4"/>
<feGaussianBlur stdDeviation="2"/>
<feComposite in2="hardAlpha" operator="out"/>
<feColorMatrix type="matrix" values="0 0 0 0 0 0 0 0 0 0 0 0 0 0 0 0 0 0 0.25 0"/>
<feBlend mode="normal" in2="BackgroundImageFix" result="effect1_dropShadow_2149_2196"/>
<feBlend mode="normal" in="SourceGraphic" in2="effect1_dropShadow_2149_2196" result="shape"/>
</filter>
<clipPath id="clip0_2149_2196">
<rect width="32" height="32" fill="white"/>
</clipPath>
</defs>
</svg>
